<?xml version="1.0" encoding="utf-8"?>
<!-- Generator: Adobe Illustrator 23.0.1, SVG Export Plug-In . SVG Version: 6.00 Build 0)  -->
<svg version="1.0" id="Layer_1" xmlns="http://www.w3.org/2000/svg" xmlns:xlink="http://www.w3.org/1999/xlink" x="0px" y="0px"
	 viewBox="0 0 100 100" enable-background="new 0 0 100 100" xml:space="preserve">
<g>
	<g>
		<path fill="#565656" d="M89.56,84.02l-4.07-54.88c0-0.04,0-0.08,0-0.11l-0.03-0.39l-1.01-13.65c-0.04-0.48-0.13-0.94-0.28-1.38
			l-0.65-7.62c-0.28-3.29-3.19-5.63-6.46-5.21L59.12,3.09c-3.27,0.42-7.02,3.25-8.33,6.28l-1.64,3.78L5.96,18.29
			c-3.28,0.39-5.73,3.4-5.44,6.69l5.97,69.04c0.28,3.29,3.2,5.65,6.47,5.26l71.09-8.56C87.32,90.32,89.8,87.31,89.56,84.02z"/>
	</g>
</g>
<path opacity="0.6" fill="#363636" d="M10,37L6,88l0.48,6.02c0.28,3.29,3.2,5.65,6.47,5.26l71.09-8.56c3.28-0.39,5.76-3.41,5.51-6.7
	l-4.68-63.18l-65.88,7.28C14.45,29.09,11.1,31.6,10,37z"/>
<g>
	<radialGradient id="SVGID_1_" cx="25.9856" cy="38.9062" r="77.4426" gradientUnits="userSpaceOnUse">
		<stop  offset="0" style="stop-color:#FF8C00"/>
		<stop  offset="0.9827" style="stop-color:#FF6200"/>
	</radialGradient>
	<path fill="url(#SVGID_1_)" d="M92.72,84.04c-0.4,3.28-3.4,6.27-6.68,6.66l-73.08,8.6c-3.28,0.39-5.55-1.97-5.06-5.23l8.2-54.14
		c0.49-3.26,3.58-6.26,6.86-6.65l71.09-8.56c3.28-0.39,5.63,1.96,5.23,5.24L92.72,84.04z"/>
</g>
<polygon fill="#F04902" points="26.76,90.91 44.69,64.82 47.82,71.98 61.96,56.76 64.08,62.86 79.04,46.95 83.47,58.04 60.04,78.37 
	57.79,72.27 44.07,85.01 41.94,78.85 "/>
<polygon fill="#FFFFFF" points="27.76,80.91 45.69,54.82 48.82,61.98 62.96,46.76 65.08,52.86 80.04,36.95 84.47,48.04 61.04,68.37 
	58.79,62.27 45.07,75.01 42.94,68.85 "/>
</svg>
