<?xml version="1.0" standalone="no"?><!-- Generator: Gravit.io --><svg xmlns="http://www.w3.org/2000/svg" xmlns:xlink="http://www.w3.org/1999/xlink" style="isolation:isolate" viewBox="453.757 347.438 98.285 92.04" width="98.285" height="92.04"><defs><clipPath id="_clipPath_nS20LbHoOPlk24SBjI6x7OiIk2RdKeux"><rect x="453.757" y="347.438" width="98.285" height="92.04"/></clipPath></defs><g clip-path="url(#_clipPath_nS20LbHoOPlk24SBjI6x7OiIk2RdKeux)"><g><g><g><path d=" M 537.603 431.529 L 539.264 376.523 C 539.269 376.483 539.273 376.444 539.276 376.414 L 539.287 376.023 L 539.848 362.342 C 539.859 361.86 539.817 361.393 539.714 360.94 L 539.86 353.294 C 539.924 349.992 537.127 347.362 533.831 347.44 L 513 347.871 C 509.704 347.949 508.428 350.373 506.809 353.25 L 504.785 357.458 L 461.295 357.458 C 457.992 357.505 455.242 360.243 455.188 363.546 L 453.943 432.832 C 453.879 436.133 456.538 438.784 459.831 438.737 L 531.426 437.619 C 534.72 437.561 537.499 434.826 537.603 431.529 Z " fill="rgb(86,86,86)"/></g></g><g opacity="0.6"><path d=" M 463.048 372.84 L 453.929 424.374 L 453.8 430.551 C 453.747 433.928 456.415 436.619 459.709 436.544 L 531.316 434.829 C 534.619 434.755 537.391 431.924 537.474 428.549 L 539.183 363.759 L 472.889 364.684 C 468.274 365.224 464.687 367.45 463.048 372.84 Z " fill="rgb(54,54,54)"/></g><g><radialGradient id="_rgradient_4" fx="25.9856" fy="38.9062" cx="25.9856" cy="38.9062" r="77.4426" gradientTransform="matrix(90.927,10.156,-8.222,73.607,461.523,365.345)" gradientUnits="userSpaceOnUse"><stop offset="0%" stop-opacity="1" style="stop-color:rgb(255,140,0)"/><stop offset="98.27%" stop-opacity="1" style="stop-color:rgb(255,98,0)"/></radialGradient><path d=" M 539.362 433.167 C 538.6 436.382 535.287 439.455 531.984 439.479 L 458.401 439.479 C 455.098 439.502 453.104 436.905 453.953 433.719 L 468.112 380.824 C 468.961 377.639 472.365 375 475.668 374.977 L 547.268 374.977 C 550.572 374.953 552.646 376.934 551.884 380.149 L 539.362 433.167 Z " fill="url(#_rgradient_4)"/></g><path d=" M 473.275 422.507 L 492.293 397.198 L 495.117 404.484 L 509.888 389.876 L 511.748 396.06 L 527.368 380.797 L 531.325 392.065 L 507.056 411.386 L 505.066 405.196 L 490.819 417.344 L 488.952 411.1 L 473.275 422.507 Z " fill="rgb(240,73,2)"/><path d=" M 475.187 426.674 L 494.204 401.366 L 497.029 408.652 L 511.8 394.043 L 513.66 400.228 L 529.279 384.965 L 533.236 396.232 L 508.968 415.553 L 506.978 409.363 L 492.731 421.512 L 490.863 415.267 L 475.187 426.674 Z " fill="rgb(255,255,255)"/></g></g></svg>