<?xml version="1.0" standalone="no"?><!-- Generator: Gravit.io --><svg xmlns="http://www.w3.org/2000/svg" xmlns:xlink="http://www.w3.org/1999/xlink" style="isolation:isolate" viewBox="453.757 343.438 98.285 92.04" width="98.285" height="92.04"><defs><clipPath id="_clipPath_S9dZdPrsf3oRVKpkTwGVLnqkrjunkAg9"><rect x="453.757" y="343.438" width="98.285" height="92.04"/></clipPath></defs><g clip-path="url(#_clipPath_S9dZdPrsf3oRVKpkTwGVLnqkrjunkAg9)"><g><g><g><path d=" M 537.603 427.529 L 539.264 372.523 C 539.269 372.483 539.273 372.444 539.276 372.414 L 539.287 372.023 L 539.702 358.342 C 539.712 357.86 539.671 357.393 539.567 356.94 L 539.714 349.294 C 539.777 345.992 537.127 343.362 533.831 343.44 L 515.748 343.871 C 512.452 343.949 508.428 346.373 506.809 349.25 L 504.785 352.839 L 461.295 353.458 C 457.992 353.505 455.242 356.243 455.188 359.546 L 453.943 428.832 C 453.879 432.133 456.538 434.784 459.831 434.737 L 531.426 433.619 C 534.72 433.561 537.499 430.826 537.603 427.529 Z " fill="rgb(86,86,86)"/></g></g><g opacity="0.6"><path d=" M 463.048 368.84 L 453.929 420.374 L 453.8 426.551 C 453.747 429.928 456.415 432.619 459.709 432.544 L 531.316 430.829 C 534.619 430.755 537.391 427.924 537.474 424.549 L 539.183 359.759 L 472.889 360.684 C 468.274 361.224 464.687 363.45 463.048 368.84 Z " fill="rgb(54,54,54)"/></g><g><radialGradient id="_rgradient_3" fx="25.9856" fy="38.9062" cx="25.9856" cy="38.9062" r="77.4426" gradientTransform="matrix(90.925,10.156,-8.288,74.203,461.59,360.748)" gradientUnits="userSpaceOnUse"><stop offset="0%" stop-opacity="1" style="stop-color:rgb(255,140,0)"/><stop offset="98.27%" stop-opacity="1" style="stop-color:rgb(255,98,0)"/></radialGradient><path d=" M 539.362 429.167 C 538.6 432.382 535.287 435.021 531.984 435.044 L 458.401 435.479 C 455.098 435.502 453.104 432.905 453.953 429.719 L 468.112 376.824 C 468.961 373.639 472.365 371 475.668 370.977 L 547.268 370.361 C 550.572 370.338 552.646 372.934 551.884 376.149 L 539.362 429.167 Z " fill="url(#_rgradient_3)"/></g><path d=" M 471.275 420.507 L 490.293 395.198 L 493.117 402.484 L 507.888 387.876 L 509.748 394.06 L 525.368 378.797 L 529.325 390.065 L 505.056 409.386 L 503.066 403.196 L 488.819 415.344 L 486.952 409.1 L 471.275 420.507 Z " fill="rgb(240,73,2)"/><path d=" M 475.187 422.674 L 494.204 397.366 L 497.029 404.652 L 511.8 390.043 L 513.66 396.228 L 529.279 380.965 L 533.236 392.232 L 508.968 411.553 L 506.978 405.363 L 492.731 417.512 L 490.863 411.267 L 475.187 422.674 Z " fill="rgb(255,255,255)"/></g></g></svg>